<svg width="24" height="24" fill="none" xmlns="http://www.w3.org/2000/svg"><path d="M7.116 8.5h7.769v-1h-7.77l.001 1zm0 4h4.769v-1h-4.77l.001 1zm10.384 7v-3h-3v-1h3v-3h1v3h3v1h-3v3h-1zm-14-.711V5.115c0-.445.158-.825.475-1.141a1.56 1.56 0 011.14-.475h11.77c.444 0 .824.158 1.14.475.316.317.474.697.475 1.14v4.902a9.297 9.297 0 00-.385-.014 24.579 24.579 0 00-.384-.003c-1.593 0-2.947.557-4.06 1.672-1.113 1.115-1.67 2.468-1.671 4.059l.003.385c.002.128.007.256.014.384H5.79l-2.29 2.29z" fill="#fff"/></svg>