<svg width="24" height="24" fill="none" xmlns="http://www.w3.org/2000/svg"><path d="M7 4.5a3 3 0 00-2.567 4.554 3.001 3.001 0 000 5.893M7 4.5a2.5 2.5 0 115 0m-5 0c0 .818.393 1.544 1 2m-3.567 8.447A3 3 0 007 19.5a2.5 2.5 0 005 0m-7.567-4.553A3 3 0 016 13.67m6-9.17v15m0-15a2.5 2.5 0 015 0 3 3 0 012.567 4.554M12 19.5a2.5 2.5 0 005 0m0 0a3 3 0 002.567-4.553 3.002 3.002 0 000-5.893M17 19.5c0-.818-.393-1.544-1-2m3.567-8.446A3 3 0 0118 10.329" stroke="#fff" stroke-width="1.5" stroke-linecap="round" stroke-linejoin="round"/></svg>