<svg width="24" height="24" fill="none" xmlns="http://www.w3.org/2000/svg"><path fill-rule="evenodd" clip-rule="evenodd" d="M16 9a4 4 0 11-8 0 4 4 0 018 0zm-2 0a2 2 0 11-4 0 2 2 0 014 0z" fill="#fff"/><path fill-rule="evenodd" clip-rule="evenodd" d="M12 1C5.925 1 1 5.925 1 12s4.925 11 11 11 11-4.925 11-11S18.075 1 12 1zM3 12c0 2.09.713 4.014 1.908 5.542A8.99 8.99 0 0112.065 14a8.98 8.98 0 017.092 3.458A9.001 9.001 0 103 12zm9 9a8.96 8.96 0 01-5.672-2.012A6.99 6.99 0 0112.065 16a6.99 6.99 0 015.689 2.92A8.96 8.96 0 0112 21z" fill="#fff"/></svg>