<svg width="25" height="24" viewBox="0 0 25 24" fill="none" xmlns="http://www.w3.org/2000/svg">
<path d="M21.213 8.12713L20.967 8.69313C20.9286 8.78529 20.8637 8.86402 20.7806 8.9194C20.6975 8.97478 20.5999 9.00433 20.5 9.00433C20.4001 9.00433 20.3025 8.97478 20.2194 8.9194C20.1363 8.86402 20.0714 8.78529 20.033 8.69313L19.787 8.12713C19.3545 7.12585 18.5624 6.32305 17.567 5.87713L16.808 5.53813C16.7159 5.49577 16.6379 5.4279 16.5832 5.34256C16.5286 5.25722 16.4995 5.15798 16.4995 5.05663C16.4995 4.95527 16.5286 4.85604 16.5832 4.7707C16.6379 4.68536 16.7159 4.61749 16.808 4.57513L17.525 4.25613C18.5454 3.79751 19.3511 2.96501 19.776 1.93013L20.029 1.31913C20.0662 1.22448 20.131 1.14323 20.215 1.08595C20.299 1.02868 20.3983 0.998047 20.5 0.998047C20.6017 0.998047 20.701 1.02868 20.785 1.08595C20.869 1.14323 20.9338 1.22448 20.971 1.31913L21.224 1.92913C21.6485 2.9642 22.4538 3.79706 23.474 4.25613L24.192 4.57613C24.2838 4.61861 24.3615 4.68647 24.416 4.7717C24.4705 4.85693 24.4994 4.95597 24.4994 5.05713C24.4994 5.15828 24.4705 5.25732 24.416 5.34255C24.3615 5.42779 24.2838 5.49565 24.192 5.53813L23.432 5.87613C22.4368 6.32249 21.6451 7.12565 21.213 8.12713ZM10.5 2.99913H14.5V4.99913H10.5C8.9087 4.99913 7.38258 5.63127 6.25736 6.75649C5.13214 7.88171 4.5 9.40783 4.5 10.9991C4.5 14.6091 6.962 16.9651 12.5 19.4791V16.9991H14.5C16.0913 16.9991 17.6174 16.367 18.7426 15.2418C19.8679 14.1166 20.5 12.5904 20.5 10.9991H22.5C22.5 13.1209 21.6571 15.1557 20.1569 16.656C18.6566 18.1563 16.6217 18.9991 14.5 18.9991V22.4991C9.5 20.4991 2.5 17.4991 2.5 10.9991C2.5 8.8774 3.34285 6.84256 4.84315 5.34227C6.34344 3.84198 8.37827 2.99913 10.5 2.99913Z" fill="black"/>
</svg>
