<svg width="24" height="25" viewBox="0 0 24 25" fill="none" xmlns="http://www.w3.org/2000/svg">
<path d="M20.9727 3.52728C20.9727 3.52728 15.6966 3.15712 13.6987 5.14373C13.6801 5.17364 10.4658 8.37663 10.4658 8.37663L6.42467 9.18486L4 10.8013L10.4658 14.0342L13.6987 20.5L15.3151 18.0753L16.1234 14.0342C16.1234 14.0342 19.3264 10.8199 19.3563 10.8013C21.3429 8.80337 20.9727 3.52728 20.9727 3.52728ZM16.1234 9.18486C15.909 9.18486 15.7034 9.0997 15.5519 8.94813C15.4003 8.79656 15.3151 8.59099 15.3151 8.37663C15.3151 8.16228 15.4003 7.9567 15.5519 7.80513C15.7034 7.65356 15.909 7.56841 16.1234 7.56841C16.3377 7.56841 16.5433 7.65356 16.6949 7.80513C16.8464 7.9567 16.9316 8.16228 16.9316 8.37663C16.9316 8.59099 16.8464 8.79656 16.6949 8.94813C16.5433 9.0997 16.3377 9.18486 16.1234 9.18486ZM8.04112 16.4589C7.2329 15.6507 5.61645 15.6507 4.80822 16.4589C4 17.2671 4 20.5 4 20.5C4 20.5 7.2329 20.5 8.04112 19.6918C8.84935 18.8836 8.84935 17.2671 8.04112 16.4589Z" stroke="#232323" stroke-width="1.5"/>
</svg>
