<svg width="24" height="24" fill="none" xmlns="http://www.w3.org/2000/svg"><path d="M14 4h2c1.414 0 2.121 0 2.56.44C19 4.878 19 5.585 19 7m-9-3H8c-1.414 0-2.121 0-2.56.44C5 4.878 5 5.585 5 7m5 13H8c-1.414 0-2.121 0-2.56-.44C5 19.122 5 18.415 5 17m9 3h2c1.414 0 2.121 0 2.56-.44.44-.439.44-1.146.44-2.56m-9-5h4M13 2h-2a1 1 0 00-1 1v2a1 1 0 001 1h2a1 1 0 001-1V3a1 1 0 00-1-1zm0 16h-2a1 1 0 00-1 1v2a1 1 0 001 1h2a1 1 0 001-1v-2a1 1 0 00-1-1zm8-5v-2a1 1 0 00-1-1h-2a1 1 0 00-1 1v2a1 1 0 001 1h2a1 1 0 001-1zM7 13v-2a1 1 0 00-1-1H4a1 1 0 00-1 1v2a1 1 0 001 1h2a1 1 0 001-1z" stroke="#F8FF99" stroke-width="1.5" stroke-linecap="round" stroke-linejoin="round"/></svg>