<svg width="25" height="24" viewBox="0 0 25 24" fill="none" xmlns="http://www.w3.org/2000/svg">
<path fill-rule="evenodd" clip-rule="evenodd" d="M3.5 12C3.5 11.2044 3.81607 10.4413 4.37868 9.87868C4.94129 9.31607 5.70435 9 6.5 9H18.5C19.2956 9 20.0587 9.31607 20.6213 9.87868C21.1839 10.4413 21.5 11.2044 21.5 12V19C21.5 19.7956 21.1839 20.5587 20.6213 21.1213C20.0587 21.6839 19.2956 22 18.5 22H6.5C5.70435 22 4.94129 21.6839 4.37868 21.1213C3.81607 20.5587 3.5 19.7956 3.5 19V12ZM13.5 14C13.5 13.7348 13.3946 13.4804 13.2071 13.2929C13.0196 13.1054 12.7652 13 12.5 13C12.2348 13 11.9804 13.1054 11.7929 13.2929C11.6054 13.4804 11.5 13.7348 11.5 14V17C11.5 17.2652 11.6054 17.5196 11.7929 17.7071C11.9804 17.8946 12.2348 18 12.5 18C12.7652 18 13.0196 17.8946 13.2071 17.7071C13.3946 17.5196 13.5 17.2652 13.5 17V14Z" fill="#232323"/>
<path d="M8.5 10V7C8.5 5.93913 8.92143 4.92172 9.67157 4.17157C10.4217 3.42143 11.4391 3 12.5 3C13.5609 3 14.5783 3.42143 15.3284 4.17157C16.0786 4.92172 16.5 5.93913 16.5 7V10" stroke="#232323" stroke-width="2" stroke-linecap="round" stroke-linejoin="round"/>
</svg>
