<svg width="32" height="32" viewBox="0 0 32 32" fill="none" xmlns="http://www.w3.org/2000/svg">
<path d="M12.2534 18.6268V9.02678L19.7134 4.72011C23.8468 2.33345 31.2468 8.22011 28.1401 13.6068" stroke="white" stroke-linejoin="round"/>
<path d="M12.2534 13.9602L20.5668 9.16016L28.0268 13.4668C32.1601 15.8535 30.7601 25.2068 24.5401 25.2068" stroke="white" stroke-linejoin="round"/>
<path d="M16.2935 11.627L24.6069 16.427V25.047C24.6069 29.8203 15.8069 33.287 12.7002 27.9003" stroke="white" stroke-linejoin="round"/>
<path d="M20.3333 14.1338V23.5605L12.8733 27.8671C8.73997 30.2538 1.33997 24.3671 4.44664 18.9805" stroke="white" stroke-linejoin="round"/>
<path d="M20.3334 18.6266L12.02 23.4265L4.56002 19.1199C0.420024 16.7266 1.82002 7.37988 8.04002 7.37988" stroke="white" stroke-linejoin="round"/>
<path d="M16.2933 20.9599L7.97998 16.1599V7.53985C7.97998 2.76652 16.78 -0.70015 19.8866 4.68652" stroke="white" stroke-linejoin="round"/>
</svg>
